# xmcd CD database file
#
# Track frame offsets:
#	150
#	39291
#	79926
#	128404
#	136548
#	167216
#	222631
#
# Disc length: 3624 seconds
#
# Revision: 0
# Processed by: cddbd v1.5.1PL0 Copyright (c) Steve Scherf et al.
# Submitted via: CDex 1.51
#
DISCID=560e2607
DTITLE=Chuck Florence - Remembering Jim Pepper
DYEAR=1900
DGENRE=Jazz
TTITLE0=Lakota Song
TTITLE1=Funny Glasses And A Mustache
TTITLE2=Ghana Folk Song
TTITLE3=Witchi-Tai-Toe (chant)
TTITLE4=Remembrance
TTITLE5=Mr. DC
TTITLE6=Drakumba
EXTD=
EXTT0=
EXTT1=
EXTT2=
EXTT3=
EXTT4=
EXTT5=
EXTT6=
PLAYORDER=
